<mxfile host="65bd71144e">
    <diagram id="C5RBs43oDa-KdzZeNtuy" name="Page-1">
        <mxGraphModel dx="1210" dy="2507" grid="1" gridSize="10" guides="1" tooltips="1" connect="1" arrows="1" fold="1" page="1" pageScale="1" pageWidth="2336" pageHeight="1654" math="0" shadow="0">
            <root>
                <mxCell id="WIyWlLk6GJQsqaUBKTNV-0"/>
                <mxCell id="WIyWlLk6GJQsqaUBKTNV-1" parent="WIyWlLk6GJQsqaUBKTNV-0"/>
                <mxCell id="7Le_8y41p-yDMyTRuh6p-213" style="edgeStyle=orthogonalEdgeStyle;rounded=0;orthogonalLoop=1;jettySize=auto;html=1;exitX=0.75;exitY=1;exitDx=0;exitDy=0;entryX=0;entryY=-0.244;entryDx=0;entryDy=0;entryPerimeter=0;dashed=1;endArrow=open;endFill=0;" parent="WIyWlLk6GJQsqaUBKTNV-1" source="7Le_8y41p-yDMyTRuh6p-7" target="7Le_8y41p-yDMyTRuh6p-163" edge="1">
                    <mxGeometry relative="1" as="geometry">
                        <mxPoint x="390" y="1110" as="targetPoint"/>
                    </mxGeometry>
                </mxCell>
                <mxCell id="7Le_8y41p-yDMyTRuh6p-219" style="edgeStyle=orthogonalEdgeStyle;rounded=0;orthogonalLoop=1;jettySize=auto;html=1;exitX=0;exitY=1;exitDx=0;exitDy=0;entryX=0.25;entryY=1;entryDx=0;entryDy=0;dashed=1;endArrow=open;endFill=0;" parent="WIyWlLk6GJQsqaUBKTNV-1" source="7Le_8y41p-yDMyTRuh6p-7" target="7Le_8y41p-yDMyTRuh6p-173" edge="1">
                    <mxGeometry relative="1" as="geometry">
                        <Array as="points">
                            <mxPoint x="40" y="590"/>
                            <mxPoint x="50" y="590"/>
                            <mxPoint x="50" y="1170"/>
                            <mxPoint x="1198" y="1170"/>
                        </Array>
                    </mxGeometry>
                </mxCell>
                <mxCell id="7Le_8y41p-yDMyTRuh6p-7" value="BisonAgent" style="swimlane;fontStyle=2;align=center;verticalAlign=top;childLayout=stackLayout;horizontal=1;startSize=26;horizontalStack=0;resizeParent=1;resizeLast=0;collapsible=1;marginBottom=0;rounded=0;shadow=0;strokeWidth=1;" parent="WIyWlLk6GJQsqaUBKTNV-1" vertex="1">
                    <mxGeometry x="40" y="140" width="210" height="408" as="geometry">
                        <mxRectangle x="230" y="140" width="160" height="26" as="alternateBounds"/>
                    </mxGeometry>
                </mxCell>
                <mxCell id="7Le_8y41p-yDMyTRuh6p-8" value="- hydration: double&#10;- satiety: double&#10;- hoursWithoutWater: int&#10;- hoursWithoutFood: int&#10;- isAlive: bool&#10;- private int dailyEatingHours;&#10;" style="text;align=left;verticalAlign=top;spacingLeft=4;spacingRight=4;overflow=hidden;rotatable=0;points=[[0,0.5],[1,0.5]];portConstraint=eastwest;" parent="7Le_8y41p-yDMyTRuh6p-7" vertex="1">
                    <mxGeometry y="26" width="210" height="114" as="geometry"/>
                </mxCell>
                <mxCell id="7Le_8y41p-yDMyTRuh6p-44" value="" style="line;strokeWidth=1;fillColor=none;align=left;verticalAlign=middle;spacingTop=-1;spacingLeft=3;spacingRight=3;rotatable=0;labelPosition=right;points=[];portConstraint=eastwest;strokeColor=inherit;" parent="7Le_8y41p-yDMyTRuh6p-7" vertex="1">
                    <mxGeometry y="140" width="210" height="8" as="geometry"/>
                </mxCell>
                <mxCell id="7Le_8y41p-yDMyTRuh6p-46" value="+ give_birth(): BisonAgent" style="text;align=left;verticalAlign=top;spacingLeft=4;spacingRight=4;overflow=hidden;rotatable=0;points=[[0,0.5],[1,0.5]];portConstraint=eastwest;rounded=0;shadow=0;html=0;" parent="7Le_8y41p-yDMyTRuh6p-7" vertex="1">
                    <mxGeometry y="148" width="210" height="26" as="geometry"/>
                </mxCell>
                <mxCell id="7ETAnbpBGNZBc5IbVkjf-1" value="+ mate(partner:BisonAgent): BisonAgent" style="text;align=left;verticalAlign=top;spacingLeft=4;spacingRight=4;overflow=hidden;rotatable=0;points=[[0,0.5],[1,0.5]];portConstraint=eastwest;rounded=0;shadow=0;html=0;" parent="7Le_8y41p-yDMyTRuh6p-7" vertex="1">
                    <mxGeometry y="174" width="210" height="26" as="geometry"/>
                </mxCell>
                <mxCell id="7ETAnbpBGNZBc5IbVkjf-4" value="+ graze(): void" style="text;align=left;verticalAlign=top;spacingLeft=4;spacingRight=4;overflow=hidden;rotatable=0;points=[[0,0.5],[1,0.5]];portConstraint=eastwest;rounded=0;shadow=0;html=0;" parent="7Le_8y41p-yDMyTRuh6p-7" vertex="1">
                    <mxGeometry y="200" width="210" height="26" as="geometry"/>
                </mxCell>
                <mxCell id="UN9xgDj5rkvGZO1UUJfj-0" value="+ tick(): void" style="text;align=left;verticalAlign=top;spacingLeft=4;spacingRight=4;overflow=hidden;rotatable=0;points=[[0,0.5],[1,0.5]];portConstraint=eastwest;rounded=0;shadow=0;html=0;" parent="7Le_8y41p-yDMyTRuh6p-7" vertex="1">
                    <mxGeometry y="226" width="210" height="26" as="geometry"/>
                </mxCell>
                <mxCell id="0" value="+ moveToWatersource(): void" style="text;align=left;verticalAlign=top;spacingLeft=4;spacingRight=4;overflow=hidden;rotatable=0;points=[[0,0.5],[1,0.5]];portConstraint=eastwest;rounded=0;shadow=0;html=0;" vertex="1" parent="7Le_8y41p-yDMyTRuh6p-7">
                    <mxGeometry y="252" width="210" height="26" as="geometry"/>
                </mxCell>
                <mxCell id="4" value="+ UpdateDailyEatingHours(): void" style="text;align=left;verticalAlign=top;spacingLeft=4;spacingRight=4;overflow=hidden;rotatable=0;points=[[0,0.5],[1,0.5]];portConstraint=eastwest;rounded=0;shadow=0;html=0;" vertex="1" parent="7Le_8y41p-yDMyTRuh6p-7">
                    <mxGeometry y="278" width="210" height="26" as="geometry"/>
                </mxCell>
                <mxCell id="5" value="+CheckSurvivalÂ (): void" style="text;align=left;verticalAlign=top;spacingLeft=4;spacingRight=4;overflow=hidden;rotatable=0;points=[[0,0.5],[1,0.5]];portConstraint=eastwest;rounded=0;shadow=0;html=0;" vertex="1" parent="7Le_8y41p-yDMyTRuh6p-7">
                    <mxGeometry y="304" width="210" height="26" as="geometry"/>
                </mxCell>
                <mxCell id="6" value="+DoRandomWalk (): void" style="text;align=left;verticalAlign=top;spacingLeft=4;spacingRight=4;overflow=hidden;rotatable=0;points=[[0,0.5],[1,0.5]];portConstraint=eastwest;rounded=0;shadow=0;html=0;" vertex="1" parent="7Le_8y41p-yDMyTRuh6p-7">
                    <mxGeometry y="330" width="210" height="26" as="geometry"/>
                </mxCell>
                <mxCell id="7" value="+ MoveTowardsGrazingArea (): void" style="text;align=left;verticalAlign=top;spacingLeft=4;spacingRight=4;overflow=hidden;rotatable=0;points=[[0,0.5],[1,0.5]];portConstraint=eastwest;rounded=0;shadow=0;html=0;" vertex="1" parent="7Le_8y41p-yDMyTRuh6p-7">
                    <mxGeometry y="356" width="210" height="26" as="geometry"/>
                </mxCell>
                <mxCell id="7Le_8y41p-yDMyTRuh6p-68" value="AnimalAgent &lt;&lt;interface&gt;&gt;" style="swimlane;fontStyle=2;align=center;verticalAlign=top;childLayout=stackLayout;horizontal=1;startSize=26;horizontalStack=0;resizeParent=1;resizeLast=0;collapsible=1;marginBottom=0;rounded=0;shadow=0;strokeWidth=1;" parent="WIyWlLk6GJQsqaUBKTNV-1" vertex="1">
                    <mxGeometry x="300" y="-100" width="210" height="320" as="geometry">
                        <mxRectangle x="230" y="140" width="160" height="26" as="alternateBounds"/>
                    </mxGeometry>
                </mxCell>
                <mxCell id="7Le_8y41p-yDMyTRuh6p-69" value="- unique_id: Int" style="text;align=left;verticalAlign=top;spacingLeft=4;spacingRight=4;overflow=hidden;rotatable=0;points=[[0,0.5],[1,0.5]];portConstraint=eastwest;" parent="7Le_8y41p-yDMyTRuh6p-68" vertex="1">
                    <mxGeometry y="26" width="210" height="26" as="geometry"/>
                </mxCell>
                <mxCell id="7Le_8y41p-yDMyTRuh6p-71" value="- age: int" style="text;align=left;verticalAlign=top;spacingLeft=4;spacingRight=4;overflow=hidden;rotatable=0;points=[[0,0.5],[1,0.5]];portConstraint=eastwest;rounded=0;shadow=0;html=0;" parent="7Le_8y41p-yDMyTRuh6p-68" vertex="1">
                    <mxGeometry y="52" width="210" height="26" as="geometry"/>
                </mxCell>
                <mxCell id="7Le_8y41p-yDMyTRuh6p-70" value="- location: Point" style="text;align=left;verticalAlign=top;spacingLeft=4;spacingRight=4;overflow=hidden;rotatable=0;points=[[0,0.5],[1,0.5]];portConstraint=eastwest;rounded=0;shadow=0;html=0;" parent="7Le_8y41p-yDMyTRuh6p-68" vertex="1">
                    <mxGeometry y="78" width="210" height="26" as="geometry"/>
                </mxCell>
                <mxCell id="7Le_8y41p-yDMyTRuh6p-72" value="- health: float" style="text;align=left;verticalAlign=top;spacingLeft=4;spacingRight=4;overflow=hidden;rotatable=0;points=[[0,0.5],[1,0.5]];portConstraint=eastwest;rounded=0;shadow=0;html=0;" parent="7Le_8y41p-yDMyTRuh6p-68" vertex="1">
                    <mxGeometry y="104" width="210" height="26" as="geometry"/>
                </mxCell>
                <mxCell id="7Le_8y41p-yDMyTRuh6p-73" value="- gender: String" style="text;align=left;verticalAlign=top;spacingLeft=4;spacingRight=4;overflow=hidden;rotatable=0;points=[[0,0.5],[1,0.5]];portConstraint=eastwest;rounded=0;shadow=0;html=0;" parent="7Le_8y41p-yDMyTRuh6p-68" vertex="1">
                    <mxGeometry y="130" width="210" height="26" as="geometry"/>
                </mxCell>
                <mxCell id="7Le_8y41p-yDMyTRuh6p-74" value="" style="line;strokeWidth=1;fillColor=none;align=left;verticalAlign=middle;spacingTop=-1;spacingLeft=3;spacingRight=3;rotatable=0;labelPosition=right;points=[];portConstraint=eastwest;strokeColor=inherit;" parent="7Le_8y41p-yDMyTRuh6p-68" vertex="1">
                    <mxGeometry y="156" width="210" height="8" as="geometry"/>
                </mxCell>
                <mxCell id="7Le_8y41p-yDMyTRuh6p-75" value="+ move(destination:Point): void" style="text;align=left;verticalAlign=top;spacingLeft=4;spacingRight=4;overflow=hidden;rotatable=0;points=[[0,0.5],[1,0.5]];portConstraint=eastwest;rounded=0;shadow=0;html=0;" parent="7Le_8y41p-yDMyTRuh6p-68" vertex="1">
                    <mxGeometry y="164" width="210" height="26" as="geometry"/>
                </mxCell>
                <mxCell id="7Le_8y41p-yDMyTRuh6p-76" value="+ reproduce(partner:Agent): void" style="text;align=left;verticalAlign=top;spacingLeft=4;spacingRight=4;overflow=hidden;rotatable=0;points=[[0,0.5],[1,0.5]];portConstraint=eastwest;rounded=0;shadow=0;html=0;" parent="7Le_8y41p-yDMyTRuh6p-68" vertex="1">
                    <mxGeometry y="190" width="210" height="26" as="geometry"/>
                </mxCell>
                <mxCell id="7Le_8y41p-yDMyTRuh6p-77" value="+ interact(agent:Agent): void" style="text;align=left;verticalAlign=top;spacingLeft=4;spacingRight=4;overflow=hidden;rotatable=0;points=[[0,0.5],[1,0.5]];portConstraint=eastwest;rounded=0;shadow=0;html=0;" parent="7Le_8y41p-yDMyTRuh6p-68" vertex="1">
                    <mxGeometry y="216" width="210" height="26" as="geometry"/>
                </mxCell>
                <mxCell id="7Le_8y41p-yDMyTRuh6p-78" value="+ eat(food: Food): void" style="text;align=left;verticalAlign=top;spacingLeft=4;spacingRight=4;overflow=hidden;rotatable=0;points=[[0,0.5],[1,0.5]];portConstraint=eastwest;rounded=0;shadow=0;html=0;" parent="7Le_8y41p-yDMyTRuh6p-68" vertex="1">
                    <mxGeometry y="242" width="210" height="26" as="geometry"/>
                </mxCell>
                <mxCell id="8" value="+ drink(): void" style="text;align=left;verticalAlign=top;spacingLeft=4;spacingRight=4;overflow=hidden;rotatable=0;points=[[0,0.5],[1,0.5]];portConstraint=eastwest;rounded=0;shadow=0;html=0;" vertex="1" parent="7Le_8y41p-yDMyTRuh6p-68">
                    <mxGeometry y="268" width="210" height="26" as="geometry"/>
                </mxCell>
                <mxCell id="7Le_8y41p-yDMyTRuh6p-79" value="+ die(): void" style="text;align=left;verticalAlign=top;spacingLeft=4;spacingRight=4;overflow=hidden;rotatable=0;points=[[0,0.5],[1,0.5]];portConstraint=eastwest;rounded=0;shadow=0;html=0;" parent="7Le_8y41p-yDMyTRuh6p-68" vertex="1">
                    <mxGeometry y="294" width="210" height="26" as="geometry"/>
                </mxCell>
                <mxCell id="7Le_8y41p-yDMyTRuh6p-202" style="edgeStyle=orthogonalEdgeStyle;rounded=0;orthogonalLoop=1;jettySize=auto;html=1;exitX=0.5;exitY=1;exitDx=0;exitDy=0;startArrow=none;startFill=0;dashed=1;endArrow=open;endFill=0;" parent="WIyWlLk6GJQsqaUBKTNV-1" edge="1">
                    <mxGeometry relative="1" as="geometry">
                        <mxPoint x="320.0042857142858" y="620" as="targetPoint"/>
                        <mxPoint x="320.2899999999998" y="560" as="sourcePoint"/>
                        <Array as="points">
                            <mxPoint x="320.29" y="590"/>
                            <mxPoint x="320.29" y="590"/>
                        </Array>
                    </mxGeometry>
                </mxCell>
                <mxCell id="7Le_8y41p-yDMyTRuh6p-206" style="edgeStyle=orthogonalEdgeStyle;rounded=0;orthogonalLoop=1;jettySize=auto;html=1;dashed=1;endArrow=open;endFill=0;" parent="WIyWlLk6GJQsqaUBKTNV-1" source="7Le_8y41p-yDMyTRuh6p-80" edge="1">
                    <mxGeometry relative="1" as="geometry">
                        <mxPoint x="385" y="690" as="targetPoint"/>
                    </mxGeometry>
                </mxCell>
                <mxCell id="7Le_8y41p-yDMyTRuh6p-210" style="edgeStyle=orthogonalEdgeStyle;rounded=0;orthogonalLoop=1;jettySize=auto;html=1;exitX=0.75;exitY=1;exitDx=0;exitDy=0;dashed=1;endArrow=open;endFill=0;" parent="WIyWlLk6GJQsqaUBKTNV-1" source="7Le_8y41p-yDMyTRuh6p-80" edge="1">
                    <mxGeometry relative="1" as="geometry">
                        <mxPoint x="437.6" y="730" as="targetPoint"/>
                    </mxGeometry>
                </mxCell>
                <mxCell id="7Le_8y41p-yDMyTRuh6p-215" style="edgeStyle=orthogonalEdgeStyle;rounded=0;orthogonalLoop=1;jettySize=auto;html=1;dashed=1;endArrow=block;endFill=0;" parent="WIyWlLk6GJQsqaUBKTNV-1" edge="1">
                    <mxGeometry relative="1" as="geometry">
                        <mxPoint x="470" y="1046" as="targetPoint"/>
                        <mxPoint x="470" y="556" as="sourcePoint"/>
                    </mxGeometry>
                </mxCell>
                <mxCell id="7Le_8y41p-yDMyTRuh6p-225" style="edgeStyle=orthogonalEdgeStyle;rounded=0;orthogonalLoop=1;jettySize=auto;html=1;exitX=0.25;exitY=1;exitDx=0;exitDy=0;dashed=1;endArrow=open;endFill=0;" parent="WIyWlLk6GJQsqaUBKTNV-1" edge="1">
                    <mxGeometry relative="1" as="geometry">
                        <mxPoint x="340" y="1170" as="targetPoint"/>
                        <mxPoint x="340" y="560" as="sourcePoint"/>
                    </mxGeometry>
                </mxCell>
                <mxCell id="7Le_8y41p-yDMyTRuh6p-80" value="ElkAgent" style="swimlane;fontStyle=2;align=center;verticalAlign=top;childLayout=stackLayout;horizontal=1;startSize=26;horizontalStack=0;resizeParent=1;resizeLast=0;collapsible=1;marginBottom=0;rounded=0;shadow=0;strokeWidth=1;" parent="WIyWlLk6GJQsqaUBKTNV-1" vertex="1">
                    <mxGeometry x="280" y="340" width="210" height="220" as="geometry">
                        <mxRectangle x="230" y="140" width="160" height="26" as="alternateBounds"/>
                    </mxGeometry>
                </mxCell>
                <mxCell id="7Le_8y41p-yDMyTRuh6p-81" value="- antler_size: float" style="text;align=left;verticalAlign=top;spacingLeft=4;spacingRight=4;overflow=hidden;rotatable=0;points=[[0,0.5],[1,0.5]];portConstraint=eastwest;" parent="7Le_8y41p-yDMyTRuh6p-80" vertex="1">
                    <mxGeometry y="26" width="210" height="26" as="geometry"/>
                </mxCell>
                <mxCell id="7Le_8y41p-yDMyTRuh6p-82" value="- herd_leader: boolean" style="text;align=left;verticalAlign=top;spacingLeft=4;spacingRight=4;overflow=hidden;rotatable=0;points=[[0,0.5],[1,0.5]];portConstraint=eastwest;rounded=0;shadow=0;html=0;" parent="7Le_8y41p-yDMyTRuh6p-80" vertex="1">
                    <mxGeometry y="52" width="210" height="26" as="geometry"/>
                </mxCell>
                <mxCell id="7Le_8y41p-yDMyTRuh6p-86" value="" style="line;strokeWidth=1;fillColor=none;align=left;verticalAlign=middle;spacingTop=-1;spacingLeft=3;spacingRight=3;rotatable=0;labelPosition=right;points=[];portConstraint=eastwest;strokeColor=inherit;" parent="7Le_8y41p-yDMyTRuh6p-80" vertex="1">
                    <mxGeometry y="78" width="210" height="8" as="geometry"/>
                </mxCell>
                <mxCell id="7Le_8y41p-yDMyTRuh6p-87" value="+ graze(): void" style="text;align=left;verticalAlign=top;spacingLeft=4;spacingRight=4;overflow=hidden;rotatable=0;points=[[0,0.5],[1,0.5]];portConstraint=eastwest;rounded=0;shadow=0;html=0;" parent="7Le_8y41p-yDMyTRuh6p-80" vertex="1">
                    <mxGeometry y="86" width="210" height="26" as="geometry"/>
                </mxCell>
                <mxCell id="7Le_8y41p-yDMyTRuh6p-88" value="+ mate(partner:ElkAgent): ElkAgent" style="text;align=left;verticalAlign=top;spacingLeft=4;spacingRight=4;overflow=hidden;rotatable=0;points=[[0,0.5],[1,0.5]];portConstraint=eastwest;rounded=0;shadow=0;html=0;" parent="7Le_8y41p-yDMyTRuh6p-80" vertex="1">
                    <mxGeometry y="112" width="210" height="26" as="geometry"/>
                </mxCell>
                <mxCell id="7ETAnbpBGNZBc5IbVkjf-2" value="+ give_birth(): ElkAgent" style="text;align=left;verticalAlign=top;spacingLeft=4;spacingRight=4;overflow=hidden;rotatable=0;points=[[0,0.5],[1,0.5]];portConstraint=eastwest;rounded=0;shadow=0;html=0;" parent="7Le_8y41p-yDMyTRuh6p-80" vertex="1">
                    <mxGeometry y="138" width="210" height="26" as="geometry"/>
                </mxCell>
                <mxCell id="UN9xgDj5rkvGZO1UUJfj-1" value="+ tick(): void" style="text;align=left;verticalAlign=top;spacingLeft=4;spacingRight=4;overflow=hidden;rotatable=0;points=[[0,0.5],[1,0.5]];portConstraint=eastwest;rounded=0;shadow=0;html=0;" parent="7Le_8y41p-yDMyTRuh6p-80" vertex="1">
                    <mxGeometry y="164" width="210" height="26" as="geometry"/>
                </mxCell>
                <mxCell id="2" value="+ moveToWatersource(): void" style="text;align=left;verticalAlign=top;spacingLeft=4;spacingRight=4;overflow=hidden;rotatable=0;points=[[0,0.5],[1,0.5]];portConstraint=eastwest;rounded=0;shadow=0;html=0;" vertex="1" parent="7Le_8y41p-yDMyTRuh6p-80">
                    <mxGeometry y="190" width="210" height="26" as="geometry"/>
                </mxCell>
                <mxCell id="7Le_8y41p-yDMyTRuh6p-203" style="edgeStyle=orthogonalEdgeStyle;rounded=0;orthogonalLoop=1;jettySize=auto;html=1;exitX=0.5;exitY=1;exitDx=0;exitDy=0;dashed=1;endArrow=open;endFill=0;" parent="WIyWlLk6GJQsqaUBKTNV-1" edge="1">
                    <mxGeometry relative="1" as="geometry">
                        <mxPoint x="580.4285714285716" y="620" as="targetPoint"/>
                        <mxPoint x="580" y="560" as="sourcePoint"/>
                    </mxGeometry>
                </mxCell>
                <mxCell id="7Le_8y41p-yDMyTRuh6p-207" style="edgeStyle=orthogonalEdgeStyle;rounded=0;orthogonalLoop=1;jettySize=auto;html=1;exitX=0.75;exitY=1;exitDx=0;exitDy=0;endArrow=open;endFill=0;dashed=1;" parent="WIyWlLk6GJQsqaUBKTNV-1" edge="1">
                    <mxGeometry relative="1" as="geometry">
                        <mxPoint x="640.1176470588234" y="690" as="targetPoint"/>
                        <mxPoint x="640" y="560" as="sourcePoint"/>
                    </mxGeometry>
                </mxCell>
                <mxCell id="7Le_8y41p-yDMyTRuh6p-211" style="edgeStyle=orthogonalEdgeStyle;rounded=0;orthogonalLoop=1;jettySize=auto;html=1;exitX=0.75;exitY=1;exitDx=0;exitDy=0;dashed=1;endArrow=open;endFill=0;" parent="WIyWlLk6GJQsqaUBKTNV-1" edge="1">
                    <mxGeometry relative="1" as="geometry">
                        <mxPoint x="692" y="730" as="targetPoint"/>
                        <mxPoint x="691.9999999999998" y="560" as="sourcePoint"/>
                    </mxGeometry>
                </mxCell>
                <mxCell id="7Le_8y41p-yDMyTRuh6p-218" style="edgeStyle=orthogonalEdgeStyle;rounded=0;orthogonalLoop=1;jettySize=auto;html=1;endArrow=open;endFill=0;dashed=1;" parent="WIyWlLk6GJQsqaUBKTNV-1" edge="1">
                    <mxGeometry relative="1" as="geometry">
                        <mxPoint x="740.4000000000001" y="1044" as="targetPoint"/>
                        <mxPoint x="740" y="561" as="sourcePoint"/>
                    </mxGeometry>
                </mxCell>
                <mxCell id="7Le_8y41p-yDMyTRuh6p-226" style="edgeStyle=orthogonalEdgeStyle;rounded=0;orthogonalLoop=1;jettySize=auto;html=1;exitX=0.25;exitY=1;exitDx=0;exitDy=0;dashed=1;endArrow=open;endFill=0;" parent="WIyWlLk6GJQsqaUBKTNV-1" edge="1">
                    <mxGeometry relative="1" as="geometry">
                        <mxPoint x="606.3076923076924" y="1170" as="targetPoint"/>
                        <mxPoint x="607" y="559.9999999999998" as="sourcePoint"/>
                    </mxGeometry>
                </mxCell>
                <mxCell id="7Le_8y41p-yDMyTRuh6p-92" value="MooseAgent" style="swimlane;fontStyle=2;align=center;verticalAlign=top;childLayout=stackLayout;horizontal=1;startSize=26;horizontalStack=0;resizeParent=1;resizeLast=0;collapsible=1;marginBottom=0;rounded=0;shadow=0;strokeWidth=1;" parent="WIyWlLk6GJQsqaUBKTNV-1" vertex="1">
                    <mxGeometry x="530" y="294" width="240" height="266" as="geometry">
                        <mxRectangle x="230" y="140" width="160" height="26" as="alternateBounds"/>
                    </mxGeometry>
                </mxCell>
                <mxCell id="7Le_8y41p-yDMyTRuh6p-93" value="- antler_size: float" style="text;align=left;verticalAlign=top;spacingLeft=4;spacingRight=4;overflow=hidden;rotatable=0;points=[[0,0.5],[1,0.5]];portConstraint=eastwest;" parent="7Le_8y41p-yDMyTRuh6p-92" vertex="1">
                    <mxGeometry y="26" width="240" height="26" as="geometry"/>
                </mxCell>
                <mxCell id="7Le_8y41p-yDMyTRuh6p-94" value="- long_legs: boolean" style="text;align=left;verticalAlign=top;spacingLeft=4;spacingRight=4;overflow=hidden;rotatable=0;points=[[0,0.5],[1,0.5]];portConstraint=eastwest;rounded=0;shadow=0;html=0;" parent="7Le_8y41p-yDMyTRuh6p-92" vertex="1">
                    <mxGeometry y="52" width="240" height="26" as="geometry"/>
                </mxCell>
                <mxCell id="7Le_8y41p-yDMyTRuh6p-98" value="" style="line;strokeWidth=1;fillColor=none;align=left;verticalAlign=middle;spacingTop=-1;spacingLeft=3;spacingRight=3;rotatable=0;labelPosition=right;points=[];portConstraint=eastwest;strokeColor=inherit;" parent="7Le_8y41p-yDMyTRuh6p-92" vertex="1">
                    <mxGeometry y="78" width="240" height="8" as="geometry"/>
                </mxCell>
                <mxCell id="7Le_8y41p-yDMyTRuh6p-99" value="+ browse(): void" style="text;align=left;verticalAlign=top;spacingLeft=4;spacingRight=4;overflow=hidden;rotatable=0;points=[[0,0.5],[1,0.5]];portConstraint=eastwest;rounded=0;shadow=0;html=0;" parent="7Le_8y41p-yDMyTRuh6p-92" vertex="1">
                    <mxGeometry y="86" width="240" height="26" as="geometry"/>
                </mxCell>
                <mxCell id="7Le_8y41p-yDMyTRuh6p-100" value="+ mate(partner:MooseAgent): MosseAgent" style="text;align=left;verticalAlign=top;spacingLeft=4;spacingRight=4;overflow=hidden;rotatable=0;points=[[0,0.5],[1,0.5]];portConstraint=eastwest;rounded=0;shadow=0;html=0;" parent="7Le_8y41p-yDMyTRuh6p-92" vertex="1">
                    <mxGeometry y="112" width="240" height="26" as="geometry"/>
                </mxCell>
                <mxCell id="7ETAnbpBGNZBc5IbVkjf-3" value="+ give_birth(): MooseAgent" style="text;align=left;verticalAlign=top;spacingLeft=4;spacingRight=4;overflow=hidden;rotatable=0;points=[[0,0.5],[1,0.5]];portConstraint=eastwest;rounded=0;shadow=0;html=0;" parent="7Le_8y41p-yDMyTRuh6p-92" vertex="1">
                    <mxGeometry y="138" width="240" height="26" as="geometry"/>
                </mxCell>
                <mxCell id="7ETAnbpBGNZBc5IbVkjf-5" value="+ graze(): void" style="text;align=left;verticalAlign=top;spacingLeft=4;spacingRight=4;overflow=hidden;rotatable=0;points=[[0,0.5],[1,0.5]];portConstraint=eastwest;rounded=0;shadow=0;html=0;" parent="7Le_8y41p-yDMyTRuh6p-92" vertex="1">
                    <mxGeometry y="164" width="240" height="26" as="geometry"/>
                </mxCell>
                <mxCell id="UN9xgDj5rkvGZO1UUJfj-3" value="+ tick(): void" style="text;align=left;verticalAlign=top;spacingLeft=4;spacingRight=4;overflow=hidden;rotatable=0;points=[[0,0.5],[1,0.5]];portConstraint=eastwest;rounded=0;shadow=0;html=0;" parent="7Le_8y41p-yDMyTRuh6p-92" vertex="1">
                    <mxGeometry y="190" width="240" height="26" as="geometry"/>
                </mxCell>
                <mxCell id="3" value="+ moveToWatersource(): void" style="text;align=left;verticalAlign=top;spacingLeft=4;spacingRight=4;overflow=hidden;rotatable=0;points=[[0,0.5],[1,0.5]];portConstraint=eastwest;rounded=0;shadow=0;html=0;" vertex="1" parent="7Le_8y41p-yDMyTRuh6p-92">
                    <mxGeometry y="216" width="240" height="26" as="geometry"/>
                </mxCell>
                <mxCell id="7Le_8y41p-yDMyTRuh6p-104" value="" style="endArrow=block;dashed=1;endFill=0;endSize=12;html=1;rounded=0;entryX=1.01;entryY=1.223;entryDx=0;entryDy=0;entryPerimeter=0;" parent="WIyWlLk6GJQsqaUBKTNV-1" target="7Le_8y41p-yDMyTRuh6p-73" edge="1">
                    <mxGeometry width="160" relative="1" as="geometry">
                        <mxPoint x="640" y="290" as="sourcePoint"/>
                        <mxPoint x="490" y="200" as="targetPoint"/>
                        <Array as="points">
                            <mxPoint x="643" y="162"/>
                        </Array>
                    </mxGeometry>
                </mxCell>
                <mxCell id="7Le_8y41p-yDMyTRuh6p-105" value="" style="endArrow=block;dashed=1;endFill=0;endSize=12;html=1;rounded=0;" parent="WIyWlLk6GJQsqaUBKTNV-1" edge="1">
                    <mxGeometry width="160" relative="1" as="geometry">
                        <mxPoint x="380" y="340" as="sourcePoint"/>
                        <mxPoint x="380" y="220" as="targetPoint"/>
                    </mxGeometry>
                </mxCell>
                <mxCell id="7Le_8y41p-yDMyTRuh6p-109" value="" style="endArrow=block;dashed=1;endFill=0;endSize=12;html=1;rounded=0;entryX=-0.008;entryY=1.122;entryDx=0;entryDy=0;entryPerimeter=0;exitX=0.5;exitY=0;exitDx=0;exitDy=0;" parent="WIyWlLk6GJQsqaUBKTNV-1" target="7Le_8y41p-yDMyTRuh6p-73" edge="1" source="7Le_8y41p-yDMyTRuh6p-7">
                    <mxGeometry width="160" relative="1" as="geometry">
                        <mxPoint x="145" y="310" as="sourcePoint"/>
                        <mxPoint x="290" y="380" as="targetPoint"/>
                        <Array as="points">
                            <mxPoint x="145" y="159"/>
                        </Array>
                    </mxGeometry>
                </mxCell>
                <mxCell id="7Le_8y41p-yDMyTRuh6p-110" value="TerrainLayer" style="swimlane;fontStyle=2;align=center;verticalAlign=top;childLayout=stackLayout;horizontal=1;startSize=26;horizontalStack=0;resizeParent=1;resizeLast=0;collapsible=1;marginBottom=0;rounded=0;shadow=0;strokeWidth=1;" parent="WIyWlLk6GJQsqaUBKTNV-1" vertex="1">
                    <mxGeometry x="760" y="769" width="230" height="150" as="geometry">
                        <mxRectangle x="230" y="140" width="160" height="26" as="alternateBounds"/>
                    </mxGeometry>
                </mxCell>
                <mxCell id="7Le_8y41p-yDMyTRuh6p-111" value="- elevation_data: Matrix" style="text;align=left;verticalAlign=top;spacingLeft=4;spacingRight=4;overflow=hidden;rotatable=0;points=[[0,0.5],[1,0.5]];portConstraint=eastwest;" parent="7Le_8y41p-yDMyTRuh6p-110" vertex="1">
                    <mxGeometry y="26" width="230" height="26" as="geometry"/>
                </mxCell>
                <mxCell id="7Le_8y41p-yDMyTRuh6p-112" value="- terrain_type: string" style="text;align=left;verticalAlign=top;spacingLeft=4;spacingRight=4;overflow=hidden;rotatable=0;points=[[0,0.5],[1,0.5]];portConstraint=eastwest;rounded=0;shadow=0;html=0;" parent="7Le_8y41p-yDMyTRuh6p-110" vertex="1">
                    <mxGeometry y="52" width="230" height="26" as="geometry"/>
                </mxCell>
                <mxCell id="7Le_8y41p-yDMyTRuh6p-116" value="" style="line;strokeWidth=1;fillColor=none;align=left;verticalAlign=middle;spacingTop=-1;spacingLeft=3;spacingRight=3;rotatable=0;labelPosition=right;points=[];portConstraint=eastwest;strokeColor=inherit;" parent="7Le_8y41p-yDMyTRuh6p-110" vertex="1">
                    <mxGeometry y="78" width="230" height="8" as="geometry"/>
                </mxCell>
                <mxCell id="7Le_8y41p-yDMyTRuh6p-117" value="+ get_elevation(location: Point): float" style="text;align=left;verticalAlign=top;spacingLeft=4;spacingRight=4;overflow=hidden;rotatable=0;points=[[0,0.5],[1,0.5]];portConstraint=eastwest;rounded=0;shadow=0;html=0;" parent="7Le_8y41p-yDMyTRuh6p-110" vertex="1">
                    <mxGeometry y="86" width="230" height="26" as="geometry"/>
                </mxCell>
                <mxCell id="7Le_8y41p-yDMyTRuh6p-118" value="+ get_terrain_type(location: Point): String" style="text;align=left;verticalAlign=top;spacingLeft=4;spacingRight=4;overflow=hidden;rotatable=0;points=[[0,0.5],[1,0.5]];portConstraint=eastwest;rounded=0;shadow=0;html=0;" parent="7Le_8y41p-yDMyTRuh6p-110" vertex="1">
                    <mxGeometry y="112" width="230" height="26" as="geometry"/>
                </mxCell>
                <mxCell id="7Le_8y41p-yDMyTRuh6p-122" value="LayerÂ  &lt;&lt;interface&gt;&gt;" style="swimlane;fontStyle=2;align=center;verticalAlign=top;childLayout=stackLayout;horizontal=1;startSize=26;horizontalStack=0;resizeParent=1;resizeLast=0;collapsible=1;marginBottom=0;rounded=0;shadow=0;strokeWidth=1;" parent="WIyWlLk6GJQsqaUBKTNV-1" vertex="1">
                    <mxGeometry x="1015" y="1406" width="210" height="90" as="geometry">
                        <mxRectangle x="230" y="140" width="160" height="26" as="alternateBounds"/>
                    </mxGeometry>
                </mxCell>
                <mxCell id="7Le_8y41p-yDMyTRuh6p-127" value="- name: String" style="text;align=left;verticalAlign=top;spacingLeft=4;spacingRight=4;overflow=hidden;rotatable=0;points=[[0,0.5],[1,0.5]];portConstraint=eastwest;rounded=0;shadow=0;html=0;" parent="7Le_8y41p-yDMyTRuh6p-122" vertex="1">
                    <mxGeometry y="26" width="210" height="26" as="geometry"/>
                </mxCell>
                <mxCell id="7Le_8y41p-yDMyTRuh6p-128" value="" style="line;strokeWidth=1;fillColor=none;align=left;verticalAlign=middle;spacingTop=-1;spacingLeft=3;spacingRight=3;rotatable=0;labelPosition=right;points=[];portConstraint=eastwest;strokeColor=inherit;" parent="7Le_8y41p-yDMyTRuh6p-122" vertex="1">
                    <mxGeometry y="52" width="210" height="8" as="geometry"/>
                </mxCell>
                <mxCell id="7Le_8y41p-yDMyTRuh6p-133" value="- get_data(location: Point): Data" style="text;align=left;verticalAlign=top;spacingLeft=4;spacingRight=4;overflow=hidden;rotatable=0;points=[[0,0.5],[1,0.5]];portConstraint=eastwest;rounded=0;shadow=0;html=0;" parent="7Le_8y41p-yDMyTRuh6p-122" vertex="1">
                    <mxGeometry y="60" width="210" height="26" as="geometry"/>
                </mxCell>
                <mxCell id="7Le_8y41p-yDMyTRuh6p-134" value="ClimateLayer" style="swimlane;fontStyle=2;align=center;verticalAlign=top;childLayout=stackLayout;horizontal=1;startSize=26;horizontalStack=0;resizeParent=1;resizeLast=0;collapsible=1;marginBottom=0;rounded=0;shadow=0;strokeWidth=1;" parent="WIyWlLk6GJQsqaUBKTNV-1" vertex="1">
                    <mxGeometry x="1020" y="769" width="230" height="150" as="geometry">
                        <mxRectangle x="230" y="140" width="160" height="26" as="alternateBounds"/>
                    </mxGeometry>
                </mxCell>
                <mxCell id="7Le_8y41p-yDMyTRuh6p-135" value="- temperature_data: GeoJSON" style="text;align=left;verticalAlign=top;spacingLeft=4;spacingRight=4;overflow=hidden;rotatable=0;points=[[0,0.5],[1,0.5]];portConstraint=eastwest;" parent="7Le_8y41p-yDMyTRuh6p-134" vertex="1">
                    <mxGeometry y="26" width="230" height="26" as="geometry"/>
                </mxCell>
                <mxCell id="7Le_8y41p-yDMyTRuh6p-136" value="- precipitation_data: GeoJSON" style="text;align=left;verticalAlign=top;spacingLeft=4;spacingRight=4;overflow=hidden;rotatable=0;points=[[0,0.5],[1,0.5]];portConstraint=eastwest;rounded=0;shadow=0;html=0;" parent="7Le_8y41p-yDMyTRuh6p-134" vertex="1">
                    <mxGeometry y="52" width="230" height="26" as="geometry"/>
                </mxCell>
                <mxCell id="7Le_8y41p-yDMyTRuh6p-140" value="" style="line;strokeWidth=1;fillColor=none;align=left;verticalAlign=middle;spacingTop=-1;spacingLeft=3;spacingRight=3;rotatable=0;labelPosition=right;points=[];portConstraint=eastwest;strokeColor=inherit;" parent="7Le_8y41p-yDMyTRuh6p-134" vertex="1">
                    <mxGeometry y="78" width="230" height="8" as="geometry"/>
                </mxCell>
                <mxCell id="7Le_8y41p-yDMyTRuh6p-141" value="+ get_temperature(location: Point): float" style="text;align=left;verticalAlign=top;spacingLeft=4;spacingRight=4;overflow=hidden;rotatable=0;points=[[0,0.5],[1,0.5]];portConstraint=eastwest;rounded=0;shadow=0;html=0;" parent="7Le_8y41p-yDMyTRuh6p-134" vertex="1">
                    <mxGeometry y="86" width="230" height="26" as="geometry"/>
                </mxCell>
                <mxCell id="7Le_8y41p-yDMyTRuh6p-196" value="+ get_precipitation(location: Point): float" style="text;align=left;verticalAlign=top;spacingLeft=4;spacingRight=4;overflow=hidden;rotatable=0;points=[[0,0.5],[1,0.5]];portConstraint=eastwest;rounded=0;shadow=0;html=0;" parent="7Le_8y41p-yDMyTRuh6p-134" vertex="1">
                    <mxGeometry y="112" width="230" height="26" as="geometry"/>
                </mxCell>
                <mxCell id="7Le_8y41p-yDMyTRuh6p-146" value="VegetationLayer" style="swimlane;fontStyle=2;align=center;verticalAlign=top;childLayout=stackLayout;horizontal=1;startSize=26;horizontalStack=0;resizeParent=1;resizeLast=0;collapsible=1;marginBottom=0;rounded=0;shadow=0;strokeWidth=1;" parent="WIyWlLk6GJQsqaUBKTNV-1" vertex="1">
                    <mxGeometry x="1270" y="769" width="270" height="150" as="geometry">
                        <mxRectangle x="230" y="140" width="160" height="26" as="alternateBounds"/>
                    </mxGeometry>
                </mxCell>
                <mxCell id="7Le_8y41p-yDMyTRuh6p-147" value="- vegetation_data: GeoJSON" style="text;align=left;verticalAlign=top;spacingLeft=4;spacingRight=4;overflow=hidden;rotatable=0;points=[[0,0.5],[1,0.5]];portConstraint=eastwest;" parent="7Le_8y41p-yDMyTRuh6p-146" vertex="1">
                    <mxGeometry y="26" width="270" height="26" as="geometry"/>
                </mxCell>
                <mxCell id="7Le_8y41p-yDMyTRuh6p-148" value="- plant_density: float" style="text;align=left;verticalAlign=top;spacingLeft=4;spacingRight=4;overflow=hidden;rotatable=0;points=[[0,0.5],[1,0.5]];portConstraint=eastwest;rounded=0;shadow=0;html=0;" parent="7Le_8y41p-yDMyTRuh6p-146" vertex="1">
                    <mxGeometry y="52" width="270" height="26" as="geometry"/>
                </mxCell>
                <mxCell id="7Le_8y41p-yDMyTRuh6p-152" value="" style="line;strokeWidth=1;fillColor=none;align=left;verticalAlign=middle;spacingTop=-1;spacingLeft=3;spacingRight=3;rotatable=0;labelPosition=right;points=[];portConstraint=eastwest;strokeColor=inherit;" parent="7Le_8y41p-yDMyTRuh6p-146" vertex="1">
                    <mxGeometry y="78" width="270" height="8" as="geometry"/>
                </mxCell>
                <mxCell id="7Le_8y41p-yDMyTRuh6p-156" value="+ get_plant_density(location: Point): float" style="text;align=left;verticalAlign=top;spacingLeft=4;spacingRight=4;overflow=hidden;rotatable=0;points=[[0,0.5],[1,0.5]];portConstraint=eastwest;rounded=0;shadow=0;html=0;" parent="7Le_8y41p-yDMyTRuh6p-146" vertex="1">
                    <mxGeometry y="86" width="270" height="26" as="geometry"/>
                </mxCell>
                <mxCell id="7Le_8y41p-yDMyTRuh6p-157" value="+ get_vegetation_type(location: Point): String" style="text;align=left;verticalAlign=top;spacingLeft=4;spacingRight=4;overflow=hidden;rotatable=0;points=[[0,0.5],[1,0.5]];portConstraint=eastwest;rounded=0;shadow=0;html=0;" parent="7Le_8y41p-yDMyTRuh6p-146" vertex="1">
                    <mxGeometry y="112" width="270" height="26" as="geometry"/>
                </mxCell>
                <mxCell id="7Le_8y41p-yDMyTRuh6p-161" value="HumanInfrastructureLayer" style="swimlane;fontStyle=2;align=center;verticalAlign=top;childLayout=stackLayout;horizontal=1;startSize=26;horizontalStack=0;resizeParent=1;resizeLast=0;collapsible=1;marginBottom=0;rounded=0;shadow=0;strokeWidth=1;" parent="WIyWlLk6GJQsqaUBKTNV-1" vertex="1">
                    <mxGeometry x="895" y="999" width="210" height="115" as="geometry">
                        <mxRectangle x="230" y="140" width="160" height="26" as="alternateBounds"/>
                    </mxGeometry>
                </mxCell>
                <mxCell id="7Le_8y41p-yDMyTRuh6p-162" value="- infrastructure_data: GeoJSON" style="text;align=left;verticalAlign=top;spacingLeft=4;spacingRight=4;overflow=hidden;rotatable=0;points=[[0,0.5],[1,0.5]];portConstraint=eastwest;" parent="7Le_8y41p-yDMyTRuh6p-161" vertex="1">
                    <mxGeometry y="26" width="210" height="26" as="geometry"/>
                </mxCell>
                <mxCell id="7Le_8y41p-yDMyTRuh6p-163" value="- impact_dactor: float" style="text;align=left;verticalAlign=top;spacingLeft=4;spacingRight=4;overflow=hidden;rotatable=0;points=[[0,0.5],[1,0.5]];portConstraint=eastwest;rounded=0;shadow=0;html=0;" parent="7Le_8y41p-yDMyTRuh6p-161" vertex="1">
                    <mxGeometry y="52" width="210" height="26" as="geometry"/>
                </mxCell>
                <mxCell id="7Le_8y41p-yDMyTRuh6p-167" value="" style="line;strokeWidth=1;fillColor=none;align=left;verticalAlign=middle;spacingTop=-1;spacingLeft=3;spacingRight=3;rotatable=0;labelPosition=right;points=[];portConstraint=eastwest;strokeColor=inherit;" parent="7Le_8y41p-yDMyTRuh6p-161" vertex="1">
                    <mxGeometry y="78" width="210" height="8" as="geometry"/>
                </mxCell>
                <mxCell id="7Le_8y41p-yDMyTRuh6p-168" value="+ get_impact(location: Point): float" style="text;align=left;verticalAlign=top;spacingLeft=4;spacingRight=4;overflow=hidden;rotatable=0;points=[[0,0.5],[1,0.5]];portConstraint=eastwest;rounded=0;shadow=0;html=0;" parent="7Le_8y41p-yDMyTRuh6p-161" vertex="1">
                    <mxGeometry y="86" width="210" height="26" as="geometry"/>
                </mxCell>
                <mxCell id="7Le_8y41p-yDMyTRuh6p-173" value="WaterFeaturesLayer" style="swimlane;fontStyle=2;align=center;verticalAlign=top;childLayout=stackLayout;horizontal=1;startSize=26;horizontalStack=0;resizeParent=1;resizeLast=0;collapsible=1;marginBottom=0;rounded=0;shadow=0;strokeWidth=1;" parent="WIyWlLk6GJQsqaUBKTNV-1" vertex="1">
                    <mxGeometry x="1145" y="999" width="210" height="115" as="geometry">
                        <mxRectangle x="230" y="140" width="160" height="26" as="alternateBounds"/>
                    </mxGeometry>
                </mxCell>
                <mxCell id="7Le_8y41p-yDMyTRuh6p-174" value="- water_data: GeoJSON" style="text;align=left;verticalAlign=top;spacingLeft=4;spacingRight=4;overflow=hidden;rotatable=0;points=[[0,0.5],[1,0.5]];portConstraint=eastwest;" parent="7Le_8y41p-yDMyTRuh6p-173" vertex="1">
                    <mxGeometry y="26" width="210" height="26" as="geometry"/>
                </mxCell>
                <mxCell id="7Le_8y41p-yDMyTRuh6p-175" value="- water_quality: String" style="text;align=left;verticalAlign=top;spacingLeft=4;spacingRight=4;overflow=hidden;rotatable=0;points=[[0,0.5],[1,0.5]];portConstraint=eastwest;rounded=0;shadow=0;html=0;" parent="7Le_8y41p-yDMyTRuh6p-173" vertex="1">
                    <mxGeometry y="52" width="210" height="26" as="geometry"/>
                </mxCell>
                <mxCell id="7Le_8y41p-yDMyTRuh6p-179" value="" style="line;strokeWidth=1;fillColor=none;align=left;verticalAlign=middle;spacingTop=-1;spacingLeft=3;spacingRight=3;rotatable=0;labelPosition=right;points=[];portConstraint=eastwest;strokeColor=inherit;" parent="7Le_8y41p-yDMyTRuh6p-173" vertex="1">
                    <mxGeometry y="78" width="210" height="8" as="geometry"/>
                </mxCell>
                <mxCell id="7Le_8y41p-yDMyTRuh6p-183" value="+ get_quality(location: Point): String" style="text;align=left;verticalAlign=top;spacingLeft=4;spacingRight=4;overflow=hidden;rotatable=0;points=[[0,0.5],[1,0.5]];portConstraint=eastwest;rounded=0;shadow=0;html=0;" parent="7Le_8y41p-yDMyTRuh6p-173" vertex="1">
                    <mxGeometry y="86" width="210" height="26" as="geometry"/>
                </mxCell>
                <mxCell id="7Le_8y41p-yDMyTRuh6p-193" value="" style="endArrow=block;dashed=1;endFill=0;endSize=12;html=1;rounded=0;entryX=-0.008;entryY=1.186;entryDx=0;entryDy=0;entryPerimeter=0;" parent="WIyWlLk6GJQsqaUBKTNV-1" target="7Le_8y41p-yDMyTRuh6p-127" edge="1">
                    <mxGeometry width="160" relative="1" as="geometry">
                        <mxPoint x="860" y="919" as="sourcePoint"/>
                        <mxPoint x="860" y="1561" as="targetPoint"/>
                        <Array as="points">
                            <mxPoint x="860" y="1463"/>
                        </Array>
                    </mxGeometry>
                </mxCell>
                <mxCell id="7Le_8y41p-yDMyTRuh6p-195" value="" style="endArrow=block;dashed=1;endFill=0;endSize=12;html=1;rounded=0;entryX=1.017;entryY=-0.077;entryDx=0;entryDy=0;entryPerimeter=0;" parent="WIyWlLk6GJQsqaUBKTNV-1" edge="1">
                    <mxGeometry width="160" relative="1" as="geometry">
                        <mxPoint x="1375" y="919" as="sourcePoint"/>
                        <mxPoint x="1225" y="1461.868" as="targetPoint"/>
                        <Array as="points">
                            <mxPoint x="1381.4299999999998" y="1463.87"/>
                        </Array>
                    </mxGeometry>
                </mxCell>
                <mxCell id="7Le_8y41p-yDMyTRuh6p-194" value="" style="endArrow=block;dashed=1;endFill=0;endSize=12;html=1;rounded=0;entryX=0.526;entryY=0.01;entryDx=0;entryDy=0;entryPerimeter=0;" parent="WIyWlLk6GJQsqaUBKTNV-1" target="7Le_8y41p-yDMyTRuh6p-122" edge="1">
                    <mxGeometry width="160" relative="1" as="geometry">
                        <mxPoint x="1123" y="919" as="sourcePoint"/>
                        <mxPoint x="1125" y="1399" as="targetPoint"/>
                        <Array as="points">
                            <mxPoint x="1123" y="919"/>
                        </Array>
                    </mxGeometry>
                </mxCell>
                <mxCell id="7Le_8y41p-yDMyTRuh6p-198" value="" style="endArrow=block;dashed=1;endFill=0;endSize=12;html=1;rounded=0;entryX=0.016;entryY=-0.159;entryDx=0;entryDy=0;entryPerimeter=0;exitX=0.105;exitY=1.099;exitDx=0;exitDy=0;exitPerimeter=0;" parent="WIyWlLk6GJQsqaUBKTNV-1" source="7Le_8y41p-yDMyTRuh6p-168" edge="1">
                    <mxGeometry width="160" relative="1" as="geometry">
                        <mxPoint x="917" y="1119" as="sourcePoint"/>
                        <mxPoint x="1014.9999999999999" y="1437.8659999999998" as="targetPoint"/>
                        <Array as="points">
                            <mxPoint x="916.64" y="1379"/>
                            <mxPoint x="916.64" y="1439"/>
                            <mxPoint x="996.64" y="1439"/>
                        </Array>
                    </mxGeometry>
                </mxCell>
                <mxCell id="7Le_8y41p-yDMyTRuh6p-199" value="" style="endArrow=block;dashed=1;endFill=0;endSize=12;html=1;rounded=0;entryX=1.002;entryY=0.271;entryDx=0;entryDy=0;entryPerimeter=0;" parent="WIyWlLk6GJQsqaUBKTNV-1" edge="1">
                    <mxGeometry width="160" relative="1" as="geometry">
                        <mxPoint x="1319.58" y="1114" as="sourcePoint"/>
                        <mxPoint x="1224.9999999999998" y="1434.046" as="targetPoint"/>
                        <Array as="points">
                            <mxPoint x="1319.58" y="1434"/>
                        </Array>
                    </mxGeometry>
                </mxCell>
                <mxCell id="7Le_8y41p-yDMyTRuh6p-200" value="" style="endArrow=open;dashed=1;endFill=0;endSize=12;html=1;rounded=0;exitX=0.5;exitY=1;exitDx=0;exitDy=0;entryX=0.414;entryY=-0.011;entryDx=0;entryDy=0;entryPerimeter=0;" parent="WIyWlLk6GJQsqaUBKTNV-1" source="7Le_8y41p-yDMyTRuh6p-7" target="7Le_8y41p-yDMyTRuh6p-146" edge="1">
                    <mxGeometry width="160" relative="1" as="geometry">
                        <mxPoint x="120" y="620" as="sourcePoint"/>
                        <mxPoint x="1380" y="680" as="targetPoint"/>
                        <Array as="points">
                            <mxPoint x="145" y="620"/>
                            <mxPoint x="1380" y="620"/>
                        </Array>
                    </mxGeometry>
                </mxCell>
                <mxCell id="7Le_8y41p-yDMyTRuh6p-201" value="+Identify areas to suitable plant density for grazing / suitable vegetation" style="edgeLabel;html=1;align=center;verticalAlign=middle;resizable=0;points=[];" parent="7Le_8y41p-yDMyTRuh6p-200" vertex="1" connectable="0">
                    <mxGeometry x="-0.818" y="-1" relative="1" as="geometry">
                        <mxPoint x="124" y="-21" as="offset"/>
                    </mxGeometry>
                </mxCell>
                <mxCell id="7Le_8y41p-yDMyTRuh6p-204" value="" style="endArrow=open;dashed=1;endFill=0;endSize=12;html=1;rounded=0;entryX=0.5;entryY=0;entryDx=0;entryDy=0;exitX=0.25;exitY=1;exitDx=0;exitDy=0;" parent="WIyWlLk6GJQsqaUBKTNV-1" target="7Le_8y41p-yDMyTRuh6p-134" edge="1" source="7Le_8y41p-yDMyTRuh6p-7">
                    <mxGeometry width="160" relative="1" as="geometry">
                        <mxPoint x="90" y="590" as="sourcePoint"/>
                        <mxPoint x="1327" y="769" as="targetPoint"/>
                        <Array as="points">
                            <mxPoint x="90" y="689"/>
                            <mxPoint x="1135" y="689"/>
                        </Array>
                    </mxGeometry>
                </mxCell>
                <mxCell id="7Le_8y41p-yDMyTRuh6p-205" value="+Modify the behavior in response to temperature and precipitation conditions" style="edgeLabel;html=1;align=center;verticalAlign=middle;resizable=0;points=[];" parent="7Le_8y41p-yDMyTRuh6p-204" vertex="1" connectable="0">
                    <mxGeometry x="-0.818" y="-1" relative="1" as="geometry">
                        <mxPoint x="221" y="-14" as="offset"/>
                    </mxGeometry>
                </mxCell>
                <mxCell id="7Le_8y41p-yDMyTRuh6p-208" value="" style="endArrow=open;dashed=1;endFill=0;endSize=12;html=1;rounded=0;entryX=0.389;entryY=0.005;entryDx=0;entryDy=0;entryPerimeter=0;" parent="WIyWlLk6GJQsqaUBKTNV-1" target="7Le_8y41p-yDMyTRuh6p-110" edge="1">
                    <mxGeometry width="160" relative="1" as="geometry">
                        <mxPoint x="70" y="550" as="sourcePoint"/>
                        <mxPoint x="895" y="769" as="targetPoint"/>
                        <Array as="points">
                            <mxPoint x="70" y="730"/>
                            <mxPoint x="850" y="730"/>
                        </Array>
                    </mxGeometry>
                </mxCell>
                <mxCell id="7Le_8y41p-yDMyTRuh6p-209" value="+ Determine suitable terrain for migration based on terrain type" style="edgeLabel;html=1;align=center;verticalAlign=middle;resizable=0;points=[];" parent="7Le_8y41p-yDMyTRuh6p-208" vertex="1" connectable="0">
                    <mxGeometry x="-0.818" y="-1" relative="1" as="geometry">
                        <mxPoint x="171" y="56" as="offset"/>
                    </mxGeometry>
                </mxCell>
                <mxCell id="7Le_8y41p-yDMyTRuh6p-214" value="+ Evaluates influence of human infrastructure" style="edgeLabel;html=1;align=center;verticalAlign=middle;resizable=0;points=[];" parent="WIyWlLk6GJQsqaUBKTNV-1" vertex="1" connectable="0">
                    <mxGeometry x="320" y="1029.9957142857143" as="geometry"/>
                </mxCell>
                <mxCell id="7Le_8y41p-yDMyTRuh6p-222" value="+ Locate water sources for drinking" style="edgeLabel;html=1;align=center;verticalAlign=middle;resizable=0;points=[];" parent="WIyWlLk6GJQsqaUBKTNV-1" vertex="1" connectable="0">
                    <mxGeometry x="145" y="1149.9957142857143" as="geometry"/>
                </mxCell>
            </root>
        </mxGraphModel>
    </diagram>
</mxfile>